<svg xmlns="http://www.w3.org/2000/svg" xmlns:xlink="http://www.w3.org/1999/xlink" viewBox="0 0 32 32" width="32" height="32" preserveAspectRatio="xMidYMid meet" style="width: 100%; height: 100%; transform: translate3d(0px, 0px, 0px); content-visibility: visible;"><defs><clipPath id="__lottie_element_2"><rect width="32" height="32" x="0" y="0"></rect></clipPath></defs><g clip-path="url(#__lottie_element_2)"><g transform="matrix(1,0,0,1,24,21)" opacity="1" style="display: block;"><g opacity="1" transform="matrix(1,0,0,1,0,0)"><path fill="rgb(22,22,22)" fill-opacity="1" d=" M8,-1 C8,-1 8,1 8,1 C8,1 -8,1 -8,1 C-8,1 -8,-1 -8,-1 C-8,-1 8,-1 8,-1z"></path></g></g><g transform="matrix(1,0,0,1,16,16)" opacity="1" style="display: block;"><g opacity="1" transform="matrix(1,0,0,1,0,0)"><path fill="rgb(22,22,22)" fill-opacity="1" d=" M16,-1 C16,-1 16,1 16,1 C16,1 -16,1 -16,1 C-16,1 -16,-1 -16,-1 C-16,-1 16,-1 16,-1z"></path></g></g><g transform="matrix(1,0,0,1,8,11)" opacity="1" style="display: block;"><g opacity="1" transform="matrix(1,0,0,1,0,0)"><path fill="rgb(22,22,22)" fill-opacity="1" d=" M8,-1 C8,-1 8,1 8,1 C8,1 -8,1 -8,1 C-8,1 -8,-1 -8,-1 C-8,-1 8,-1 8,-1z"></path></g></g></g></svg>